<svg xmlns="http://www.w3.org/2000/svg" width="20.92" height="21.75" viewBox="0 0 20.92 21.75">
  <g id="box" transform="translate(-16.032 0.001)">
    <g id="Group_641" data-name="Group 641" transform="translate(16.032 -0.001)">
      <g id="Group_640" data-name="Group 640" transform="translate(0 0)">
        <path id="Path_3570" data-name="Path 3570" d="M36.767,4.8,26.634.031a.335.335,0,0,0-.284,0L16.217,4.8a.318.318,0,0,0-.185.287V16.663a.318.318,0,0,0,.185.287L26.35,21.718a.335.335,0,0,0,.284,0L36.767,16.95a.318.318,0,0,0,.185-.287V5.086A.318.318,0,0,0,36.767,4.8ZM26.492.672l9.381,4.414L33.154,6.365a.325.325,0,0,0-.055-.034L23.781,1.947ZM23.043,2.308,32.41,6.715l-1.919.9L21.128,3.212Zm9.587,5.012v3.337l-1.792.843V8.162ZM36.3,16.464l-9.479,4.46V10.053L29.08,8.989a.315.315,0,0,0,.152-.425.331.331,0,0,0-.437-.148L26.492,9.5l-.906-.427a.331.331,0,0,0-.437.148.315.315,0,0,0,.152.425l.864.406v10.87l-9.479-4.46V5.593l7.218,3.4a.332.332,0,0,0,.142.032.328.328,0,0,0,.295-.18.315.315,0,0,0-.152-.425l-7.078-3.33,3.248-1.528,9.82,4.62,0,.006v3.823a.317.317,0,0,0,.153.27.334.334,0,0,0,.316.017L33.1,11.143a.318.318,0,0,0,.185-.287V7.012L36.3,5.593v10.87Z" transform="translate(-16.032 0.001)" fill="#fff"/>
      </g>
    </g>
    <g id="Group_643" data-name="Group 643" transform="translate(17.569 14.373)">
      <g id="Group_642" data-name="Group 642">
        <path id="Path_3571" data-name="Path 3571" d="M50.2,342.088l-1.638-.791a.36.36,0,1,0-.313.649l1.638.791a.36.36,0,0,0,.313-.649Z" transform="translate(-48.048 -341.261)" fill="#fff"/>
      </g>
    </g>
    <g id="Group_645" data-name="Group 645" transform="translate(17.572 12.816)">
      <g id="Group_644" data-name="Group 644">
        <path id="Path_3572" data-name="Path 3572" d="M51.756,307.244l-3.144-1.518a.36.36,0,1,0-.313.649l3.144,1.518a.36.36,0,0,0,.313-.649Z" transform="translate(-48.096 -305.69)" fill="#fff"/>
      </g>
    </g>
  </g>
</svg>
