<svg xmlns="http://www.w3.org/2000/svg" width="241.527" height="298.823" viewBox="0 0 241.527 298.823">
  <g id="Group_751" data-name="Group 751" transform="translate(-81.14 -103.977)">
    <g id="restaurant-finder" transform="translate(81.14 103.977)">
      <path id="Path_3524" data-name="Path 3524" d="M256.093,282.289h-83.3A23.4,23.4,0,0,1,149.4,258.9V50.493A23.4,23.4,0,0,1,172.793,27.1h83.3a23.4,23.4,0,0,1,23.393,23.393V258.9A23.4,23.4,0,0,1,256.093,282.289Z" transform="translate(-149.4 -27.1)" fill="#333"/>
      <path id="Path_3525" data-name="Path 3525" d="M257.01,273.109H171.675A16.365,16.365,0,0,1,155.3,256.734V50.975A16.365,16.365,0,0,1,171.675,34.6H257.01a16.365,16.365,0,0,1,16.375,16.375V256.734A16.365,16.365,0,0,1,257.01,273.109Z" transform="translate(-149.299 -26.972)" fill="#fff"/>
      <path id="Path_3526" data-name="Path 3526" d="M249.457,34.539h-7.628a4.3,4.3,0,0,0-4.272,4.272v2.95a4.3,4.3,0,0,1-4.272,4.272H199.111a4.3,4.3,0,0,1-4.272-4.272V38.709a4.3,4.3,0,0,0-4.272-4.272H168.7V32.2h80.656v2.339Z" transform="translate(-149.07 -27.013)" fill="#333"/>
      <g id="Group_599" data-name="Group 599" transform="translate(12.002 24.512)">
        <path id="Path_3527" data-name="Path 3527" d="M213.176,51.2,202.7,77.238l63.874,20.545V74.593Z" transform="translate(-160.49 -51.2)" fill="#f7f7f7"/>
        <path id="Path_3528" data-name="Path 3528" d="M267.283,119.21l-63.874-17.392-25.733,60.619,74.96,19.02L233.414,243.4l-12.917-.1,18.613-51.77-77.91-22.58L198.121,82.9l69.163,22.885Z" transform="translate(-161.2 -50.658)" fill="#f7f7f7"/>
        <path id="Path_3529" data-name="Path 3529" d="M266.876,126.491,207.783,109.2,185,156.9l81.876,22.885Z" transform="translate(-160.793 -50.208)" fill="#f7f7f7"/>
        <path id="Path_3530" data-name="Path 3530" d="M161.2,174.5l68.756,19.63-15.663,47.6H162.319a1.129,1.129,0,0,1-1.119-1.119V174.5Z" transform="translate(-161.2 -49.092)" fill="#f7f7f7"/>
        <path id="Path_3531" data-name="Path 3531" d="M237.8,241.549,256.209,185.1l9.866,1.831V238.5a3.321,3.321,0,0,1-3.356,3.356Z" transform="translate(-159.89 -48.911)" fill="#f7f7f7"/>
        <path id="Path_3532" data-name="Path 3532" d="M203.409,51.2l-7.832,20.342L161.2,61.981h0A10.678,10.678,0,0,1,171.88,51.3l31.53-.1Z" transform="translate(-161.2 -51.2)" fill="#f7f7f7"/>
      </g>
      <g id="Group_602" data-name="Group 602" transform="translate(73.943 37.734)">
        <g id="Group_601" data-name="Group 601">
          <path id="Path_3554" data-name="Path 3554" d="M224.524,73.761a1.29,1.29,0,0,1,.1-.61l.305-1.526a6.485,6.485,0,0,1,.2-.712c.1-.2.2-.509.305-.712a5.11,5.11,0,0,1,.814-1.221c.1-.1.1-.2.2-.305l.2-.2c.2-.1.305-.305.509-.407a4.777,4.777,0,0,1,.915-.61,5.836,5.836,0,0,1,.712-.407,6.048,6.048,0,0,1,.712-.305,2.518,2.518,0,0,1-.61.407,2.7,2.7,0,0,0-.61.509,4.7,4.7,0,0,0-.712.712c-.1.1-.2.305-.407.407-.1.1-.1.2-.2.2-.1.1-.1.2-.2.305a11.1,11.1,0,0,0-.61,1.119c-.1.2-.1.407-.2.61s-.1.509-.2.712a6.868,6.868,0,0,0-.2,1.424.762.762,0,0,1-.1.509h11.29v-.61a6.86,6.86,0,0,0-6-6.916,1.155,1.155,0,0,0,.305-.814,1.119,1.119,0,0,0-2.238,0,1.155,1.155,0,0,0,.305.814,6.935,6.935,0,0,0-6,6.916v.61A7.734,7.734,0,0,0,224.524,73.761Z" transform="translate(-222.083 -64.2)" fill="#17c490"/>
          <rect id="Rectangle_94" data-name="Rectangle 94" width="15.968" height="1.424" transform="translate(0 9.968)" fill="#17c490"/>
        </g>
      </g>
      <g id="Group_604" data-name="Group 604" transform="translate(96.014 111.881)">
        <g id="Group_603" data-name="Group 603">
          <path id="Path_3555" data-name="Path 3555" d="M246.324,146.661a1.29,1.29,0,0,1,.1-.61l.305-1.526a6.486,6.486,0,0,1,.2-.712c.1-.2.2-.509.305-.712a5.111,5.111,0,0,1,.814-1.221c.1-.1.1-.2.2-.305l.2-.2c.2-.1.305-.305.509-.407a4.777,4.777,0,0,1,.915-.61,5.835,5.835,0,0,1,.712-.407,6.048,6.048,0,0,1,.712-.305,2.517,2.517,0,0,1-.61.407,2.7,2.7,0,0,0-.61.509,4.7,4.7,0,0,0-.712.712c-.1.1-.2.305-.407.407-.1.1-.1.2-.2.2-.1.1-.1.2-.2.305a11.1,11.1,0,0,0-.61,1.119c-.1.2-.1.407-.2.61s-.1.509-.2.712a6.867,6.867,0,0,0-.2,1.424.762.762,0,0,1-.1.509h11.29v-.61a6.86,6.86,0,0,0-6-6.916,1.155,1.155,0,0,0,.305-.814,1.119,1.119,0,0,0-2.238,0,1.155,1.155,0,0,0,.305.814,6.935,6.935,0,0,0-6,6.916v.61A7.733,7.733,0,0,0,246.324,146.661Z" transform="translate(-243.781 -137.1)" fill="#ff8527"/>
          <rect id="Rectangle_95" data-name="Rectangle 95" width="15.968" height="1.424" transform="translate(0 10.069)" fill="#ff8527"/>
        </g>
      </g>
      <g id="Group_606" data-name="Group 606" transform="translate(17.087 147.072)">
        <g id="Group_605" data-name="Group 605">
          <path id="Path_3556" data-name="Path 3556" d="M168.724,181.261a1.29,1.29,0,0,1,.1-.61l.305-1.526a6.485,6.485,0,0,1,.2-.712c.1-.2.2-.509.305-.712a5.11,5.11,0,0,1,.814-1.221c.1-.1.1-.2.2-.305l.2-.2c.2-.1.305-.305.509-.407a4.777,4.777,0,0,1,.915-.61,5.834,5.834,0,0,1,.712-.407,6.048,6.048,0,0,1,.712-.305,2.517,2.517,0,0,1-.61.407,2.7,2.7,0,0,0-.61.509,4.7,4.7,0,0,0-.712.712c-.1.1-.2.305-.407.407-.1.1-.1.2-.2.2-.1.1-.1.2-.2.305a11.1,11.1,0,0,0-.61,1.119c-.1.2-.1.407-.2.61s-.1.509-.2.712a6.868,6.868,0,0,0-.2,1.424.762.762,0,0,1-.1.509h11.29v-.61a6.86,6.86,0,0,0-6-6.916,1.155,1.155,0,0,0,.305-.814,1.119,1.119,0,1,0-2.238,0,1.155,1.155,0,0,0,.305.814,6.935,6.935,0,0,0-6,6.916v.61A7.733,7.733,0,0,0,168.724,181.261Z" transform="translate(-166.181 -171.7)" fill="#34b8f2"/>
          <rect id="Rectangle_96" data-name="Rectangle 96" width="15.968" height="1.424" transform="translate(0 10.069)" fill="#34b8f2"/>
        </g>
      </g>
      <g id="Group_608" data-name="Group 608" transform="translate(72.722 175.449)">
        <g id="Group_607" data-name="Group 607">
          <path id="Path_3557" data-name="Path 3557" d="M223.424,209.161a1.29,1.29,0,0,1,.1-.61l.305-1.526a6.485,6.485,0,0,1,.2-.712c.1-.2.2-.509.305-.712a5.111,5.111,0,0,1,.814-1.221c.1-.1.1-.2.2-.305l.2-.2c.2-.1.305-.305.509-.407a4.777,4.777,0,0,1,.915-.61,5.834,5.834,0,0,1,.712-.407,6.048,6.048,0,0,1,.712-.305,2.518,2.518,0,0,1-.61.407,2.7,2.7,0,0,0-.61.509,4.7,4.7,0,0,0-.712.712c-.1.1-.2.305-.407.407-.1.1-.1.2-.2.2-.1.1-.1.2-.2.305a11.1,11.1,0,0,0-.61,1.119c-.1.2-.1.407-.2.61s-.1.509-.2.712a6.867,6.867,0,0,0-.2,1.424.762.762,0,0,1-.1.509h11.29v-.61a6.86,6.86,0,0,0-6-6.916,1.155,1.155,0,0,0,.305-.814,1.119,1.119,0,0,0-2.238,0,1.155,1.155,0,0,0,.305.814,6.936,6.936,0,0,0-6,6.916v.61A7.732,7.732,0,0,0,223.424,209.161Z" transform="translate(-220.881 -199.6)" fill="#2dc7d8"/>
          <rect id="Rectangle_97" data-name="Rectangle 97" width="15.968" height="1.424" transform="translate(0 9.968)" fill="#2dc7d8"/>
        </g>
      </g>
      <g id="Group_610" data-name="Group 610" transform="translate(25.122 62.348)">
        <g id="Group_609" data-name="Group 609">
          <path id="Path_3558" data-name="Path 3558" d="M176.524,97.961a1.29,1.29,0,0,1,.1-.61l.305-1.526a6.485,6.485,0,0,1,.2-.712c.1-.2.2-.509.305-.712a5.111,5.111,0,0,1,.814-1.221c.1-.1.1-.2.2-.305l.2-.2c.2-.1.305-.305.509-.407a4.776,4.776,0,0,1,.915-.61,5.835,5.835,0,0,1,.712-.407,6.048,6.048,0,0,1,.712-.305,2.518,2.518,0,0,1-.61.407,2.7,2.7,0,0,0-.61.509,4.7,4.7,0,0,0-.712.712c-.1.1-.2.305-.407.407-.1.1-.1.2-.2.2-.1.1-.1.2-.2.305a11.1,11.1,0,0,0-.61,1.119c-.1.2-.1.407-.2.61s-.1.509-.2.712a6.868,6.868,0,0,0-.2,1.424.762.762,0,0,1-.1.509h11.29v-.61a6.86,6.86,0,0,0-6-6.916,1.155,1.155,0,0,0,.305-.814,1.119,1.119,0,0,0-2.238,0,1.155,1.155,0,0,0,.305.814,6.935,6.935,0,0,0-6,6.916v.61A7.733,7.733,0,0,0,176.524,97.961Z" transform="translate(-174.083 -88.4)" fill="#ffcb30"/>
          <rect id="Rectangle_98" data-name="Rectangle 98" width="15.968" height="1.424" transform="translate(0 9.968)" fill="#ffcb30"/>
        </g>
      </g>
      <rect id="Rectangle_99" data-name="Rectangle 99" width="78" height="14" rx="6" transform="translate(25.86 224.023)" fill="#f7f7f7"/>
    </g>
    <g id="Group_611" data-name="Group 611" transform="translate(119.647 195.007)">
      <g id="Group_30" data-name="Group 30" transform="translate(148.352 152.073)">
        <path id="Path_3424" data-name="Path 3424" d="M397.586,351.572a22.386,22.386,0,1,1,22.386-22.386A22.4,22.4,0,0,1,397.586,351.572Zm0-35.3A12.912,12.912,0,1,0,410.5,329.186,12.969,12.969,0,0,0,397.586,316.274Z" transform="translate(-371.902 -305.818)" fill="#3a4241"/>
        <circle id="Ellipse_15" data-name="Ellipse 15" cx="17.684" cy="17.684" r="17.684" transform="translate(4.702 5.684)" fill="#ababab"/>
        <g id="Group_30-2" data-name="Group 30" transform="translate(15.369 16.702)">
          <circle id="Ellipse_16" data-name="Ellipse 16" cx="5.053" cy="5.053" r="5.053" transform="translate(2.105 2.105)" fill="#9b9b9b"/>
          <path id="Path_3425" data-name="Path 3425" d="M399.558,343.516a7.158,7.158,0,1,1,7.158-7.158A7.188,7.188,0,0,1,399.558,343.516Zm0-10.035a2.877,2.877,0,1,0,2.877,2.877A2.89,2.89,0,0,0,399.558,333.481Z" transform="translate(-392.4 -329.2)" fill="#c6c6c6"/>
        </g>
        <path id="Path_3426" data-name="Path 3426" d="M392.886,351.572a22.386,22.386,0,1,1,22.386-22.386A22.4,22.4,0,0,1,392.886,351.572Zm0-35.3A12.912,12.912,0,1,0,405.8,329.186,12.969,12.969,0,0,0,392.886,316.274Z" transform="translate(-370.5 -305.818)" fill="#222"/>
        <g id="Group_31" data-name="Group 31" transform="translate(0.211 0)" opacity="0.3">
          <path id="Path_3427" data-name="Path 3427" d="M418.379,329.541h0a23.792,23.792,0,1,0-47.579,0h47.579Z" transform="translate(-370.8 -305.4)"/>
        </g>
      </g>
      <g id="Group_31-2" data-name="Group 31" transform="translate(174.528 141.546)">
        <path id="Path_3428" data-name="Path 3428" d="M407.8,290.4s18.737,1.614,21.474,4.7l1.333,10.737Z" transform="translate(-407.8 -290.4)" fill="#e85f2d"/>
      </g>
      <g id="Group_32" data-name="Group 32" transform="translate(144.984 141.055)">
        <path id="Path_3429" data-name="Path 3429" d="M394.683,289.7A28.991,28.991,0,0,0,365.7,318.683h58.036A29.006,29.006,0,0,0,394.683,289.7Z" transform="translate(-365.7 -289.7)" fill="#ff6e39"/>
      </g>
      <g id="Group_33" data-name="Group 33" transform="translate(144.984 141.055)">
        <path id="Path_3430" data-name="Path 3430" d="M400.437,290.261a30.767,30.767,0,0,0-5.754-.561A28.991,28.991,0,0,0,365.7,318.683h11.439A29.051,29.051,0,0,1,400.437,290.261Z" transform="translate(-365.7 -289.7)" fill="#e85f2d"/>
      </g>
      <path id="Path_3424-2" data-name="Path 3424" d="M184.068,287.22s11.649-32.491,36.211-32.913H269.4s-16.632,5.825-16.632,21.263c0,15.368,13.333,15.368,21.263,15.368h18.948S318.526,293.4,312,254.307L303.3,223.5l8.07,3.649,20.983,39.86-.912,3.3c-11.93,3.509-20.632,14.456-23.228,26.807-6.386,2.737-23.579,3.018-39.509,3.018h-88C180.7,300.062,181.682,292.273,184.068,287.22Z" transform="translate(-165.542 -128.901)" fill="#ff6e39"/>
      <g id="Group_34" data-name="Group 34" transform="translate(25.614 153.055)">
        <path id="Path_3432" data-name="Path 3432" d="M221.486,351.572a22.386,22.386,0,1,1,22.386-22.386A22.4,22.4,0,0,1,221.486,351.572Z" transform="translate(-196.644 -306.8)" fill="#3a4241"/>
        <circle id="Ellipse_17" data-name="Ellipse 17" cx="17.053" cy="17.053" r="17.053" transform="translate(4.561 6.105)" fill="#ababab"/>
        <path id="Path_3433" data-name="Path 3433" d="M217.214,352.228a21.614,21.614,0,1,1,21.614-21.614A21.624,21.624,0,0,1,217.214,352.228Zm0-34.105a12.491,12.491,0,1,0,12.491,12.491A12.519,12.519,0,0,0,217.214,318.123Z" transform="translate(-195.6 -307.456)" fill="#222"/>
      </g>
      <g id="Group_35" data-name="Group 35" transform="translate(65.615 108.634)">
        <path id="Path_3434" data-name="Path 3434" d="M299.548,251.921c0,3.93-2.316,7.088-5.193,7.088H257.793c-2.877,0-5.193-3.158-5.193-7.088h0c0-3.93,2.175-8.421,5.053-8.421l36.632,5.123c5.263.561,5.263,3.3,5.263,3.3Z" transform="translate(-252.6 -243.5)" fill="#222"/>
      </g>
      <g id="Group_36" data-name="Group 36" transform="translate(65.895 117.125)">
        <path id="Path_3435" data-name="Path 3435" d="M289.913,257.916c-.842,0-36.141-.281-36.141-.281a2.879,2.879,0,0,1-.772-.07c.632,2.947,2.6,5.053,4.983,5.053h36.562c2.877,0,5.193-3.158,5.193-7.018C296.72,257.495,293.562,257.916,289.913,257.916Z" transform="translate(-253 -255.6)"/>
      </g>
      <g id="Group_37" data-name="Group 37" transform="translate(40.281 169.266)">
        <circle id="Ellipse_18" data-name="Ellipse 18" cx="4.842" cy="4.842" r="4.842" transform="translate(2.105 2.105)" fill="#9b9b9b"/>
        <path id="Path_3436" data-name="Path 3436" d="M223.447,343.795a6.947,6.947,0,1,1,6.947-6.947A6.918,6.918,0,0,1,223.447,343.795Zm0-9.754a2.807,2.807,0,1,0,2.807,2.807A2.862,2.862,0,0,0,223.447,334.04Z" transform="translate(-216.5 -329.9)" fill="#c6c6c6"/>
      </g>
      <g id="Group_38" data-name="Group 38" transform="translate(25.544 152.073)" opacity="0.3">
        <path id="Path_3437" data-name="Path 3437" d="M243.079,329.541h0a23.792,23.792,0,1,0-47.579,0h47.579Z" transform="translate(-195.5 -305.4)"/>
      </g>
      <g id="Group_39" data-name="Group 39" transform="translate(15.158 125.406)">
        <g id="Group_41" data-name="Group 41" transform="translate(0 0)">
          <path id="Path_3438" data-name="Path 3438" d="M234.244,310.7s42.176,2.526,58.808-1.684,21.123-17.965,19.649-35.93c0,34.106-19.79,30.948-19.79,30.948H273.964c-7.93,0-21.263,0-21.263-15.368S269.332,267.4,269.332,267.4H220.209C195.648,267.821,184,300.313,184,300.313c-2.386,5.053-3.3,12.842-3.3,12.842h54.316Z" transform="translate(-180.7 -267.4)" fill="#e85f2d"/>
        </g>
      </g>
      <g id="Group_40" data-name="Group 40" transform="translate(22.195 129.546)">
        <path id="Path_3439" data-name="Path 3439" d="M208.954,273.3H198.638s-10.807,4.7-7.158,9.965c0,0,4.421,3.3,5.825,1.684Z" transform="translate(-190.728 -273.3)" fill="#ff652d"/>
      </g>
      <g id="Group_41-2" data-name="Group 41" transform="translate(23.579 129.546)">
        <path id="Path_3440" data-name="Path 3440" d="M202.525,273.3c-.842,1.474-6.807,9.123-9.825,10.456,1.263.842,4.14,2.526,5.193,1.193L209.542,273.3Z" transform="translate(-192.7 -273.3)" fill="#dc663b"/>
      </g>
      <g id="Group_42" data-name="Group 42" transform="translate(21.544 131.958)">
        <path id="Path_3441" data-name="Path 3441" d="M238.993,277.623c-30.316-6.456-49.193,23.93-49.193,39.509h56.351C257.45,302.886,257.52,281.623,238.993,277.623Z" transform="translate(-189.8 -276.736)" fill="#ff6e39"/>
      </g>
      <path id="Path_3425-2" data-name="Path 3425" d="M239.485,282.285c-27.509-5.895-45.685,18.737-48.7,34.948H189.8c0-15.579,18.877-45.965,49.193-39.509,10.246,2.175,14.807,9.614,14.947,18.246C252.4,289.3,247.836,284.039,239.485,282.285Z" transform="translate(-168.256 -144.808)" fill="#ff6e39"/>
      <g id="Group_43" data-name="Group 43" transform="translate(13.942 123.924)">
        <g id="Group_46" data-name="Group 46" transform="translate(0 0)">
          <path id="Path_3443" data-name="Path 3443" d="M268.886,265.507H241.447c-7.368,0-14.877-.491-22.246,0-23.579,1.684-36.281,26.176-40.211,46.667-.281,1.544,2.105,2.246,2.386.632,3.649-19.088,15.649-44,38.246-44.842,16.351-.632,32.842,0,49.193,0a1.229,1.229,0,1,0,.07-2.456Z" transform="translate(-178.967 -265.289)" fill="#ff6e39"/>
        </g>
      </g>
      <path id="Path_3426-2" data-name="Path 3426" d="M330.666,223.088a2.4,2.4,0,0,0,2.877,1.544l15.368-3.158a2.047,2.047,0,0,0,1.754-2.456h0a2.4,2.4,0,0,0-2.877-1.544l-15.369,3.158a1.99,1.99,0,0,0-1.754,2.456Z" transform="translate(-210.244 -127.086)" fill="#4d4d4f"/>
      <path id="Path_3427-2" data-name="Path 3427" d="M330.7,223.77a2.4,2.4,0,0,0,2.877,1.544l15.369-3.158A2.047,2.047,0,0,0,350.7,219.7h0l-20,4.07Z" transform="translate(-210.278 -127.768)" fill="#232323"/>
      <g id="Group_44" data-name="Group 44" transform="translate(136.264 83.809)">
        <path id="Path_3446" data-name="Path 3446" d="M370.906,214.915a8.238,8.238,0,0,1-6.667,9.474c-4.421.772-10.105-1.965-10.877-6.456-.772-4.421,3.649-8.912,8.07-9.684A8.149,8.149,0,0,1,370.906,214.915Z" transform="translate(-353.274 -208.125)" fill="#f2561d"/>
      </g>
      <path id="Path_3428-2" data-name="Path 3428" d="M361.5,211.237a10.565,10.565,0,0,0-8,7.088,4.458,4.458,0,0,1-.14-.491c-.772-4.421,3.649-8.912,8.07-9.684a8.238,8.238,0,0,1,9.474,6.667,10.362,10.362,0,0,1,0,2.947A8.253,8.253,0,0,0,361.5,211.237Z" transform="translate(-217.01 -124.287)" fill="#ff6e39"/>
      <path id="Path_3429-2" data-name="Path 3429" d="M365,208.249a8.191,8.191,0,0,1,2.807,16.14Z" transform="translate(-220.508 -124.317)" fill="#607778"/>
      <path id="Path_3430-2" data-name="Path 3430" d="M368.988,213.272a11.339,11.339,0,0,0,4.07-.772,8.59,8.59,0,0,1,1.684,3.719,8.238,8.238,0,0,1-6.667,9.474L365.9,213.132C366.882,213.2,367.865,213.272,368.988,213.272Z" transform="translate(-220.776 -125.621)" fill="#4d4d4f"/>
      <path id="Path_3431" data-name="Path 3431" d="M370,208.5a8.24,8.24,0,0,1,2.526,14.667Z" transform="translate(-221.999 -124.428)" fill="#fcd56b"/>
      <path id="Path_3432-2" data-name="Path 3432" d="M370.7,212.36l-.7-3.86a8.278,8.278,0,0,1,5.825,9.755A8.379,8.379,0,0,0,370.7,212.36Z" transform="translate(-221.999 -124.428)" fill="#dbb346"/>
      <path id="Path_3433-2" data-name="Path 3433" d="M351.469,222.352a1.612,1.612,0,0,0,1.825,1.193h0A1.422,1.422,0,0,0,354.627,222l-.772-4.211a1.612,1.612,0,0,0-1.825-1.193h0a1.422,1.422,0,0,0-1.333,1.544Z" transform="translate(-216.24 -126.841)" fill="#ff6e39"/>
      <g id="Group_45" data-name="Group 45" transform="translate(55.299 142.038)">
        <path id="Path_3453" data-name="Path 3453" d="M248.4,291.732a.629.629,0,0,0,.632.632h5.474a.629.629,0,0,0,.632-.632h0a.629.629,0,0,0-.632-.632h-5.474a.589.589,0,0,0-.632.632Z" transform="translate(-241.032 -291.1)" fill="#fff"/>
        <path id="Path_3454" data-name="Path 3454" d="M248.4,316.332a.629.629,0,0,0,.632.632h5.474a.629.629,0,0,0,.632-.632h0a.629.629,0,0,0-.632-.632h-5.474a.589.589,0,0,0-.632.632Z" transform="translate(-241.032 -298.437)" fill="#fff"/>
        <path id="Path_3455" data-name="Path 3455" d="M241.2,295.732a.629.629,0,0,0,.632.632h14.737a.629.629,0,0,0,.632-.632h0a.629.629,0,0,0-.632-.632H241.832a.741.741,0,0,0-.632.632Z" transform="translate(-238.884 -292.293)" fill="#fff"/>
        <path id="Path_3456" data-name="Path 3456" d="M238.7,299.832a.629.629,0,0,0,.632.632h17.895a.629.629,0,0,0,.632-.632h0a.629.629,0,0,0-.632-.632H239.332c-.351.07-.632.281-.632.632Z" transform="translate(-238.139 -293.516)" fill="#fff"/>
        <path id="Path_3457" data-name="Path 3457" d="M237.9,304.132a.629.629,0,0,0,.632.632h19.018a.629.629,0,0,0,.632-.632h0a.629.629,0,0,0-.632-.632H238.532a.629.629,0,0,0-.632.632Z" transform="translate(-237.9 -294.798)" fill="#fff"/>
        <path id="Path_3458" data-name="Path 3458" d="M239.5,308.031a.629.629,0,0,0,.632.632h17.4a.629.629,0,0,0,.632-.632h0a.629.629,0,0,0-.632-.632h-17.4a.629.629,0,0,0-.632.632Z" transform="translate(-238.377 -295.961)" fill="#fff"/>
        <path id="Path_3459" data-name="Path 3459" d="M242,312.032a.629.629,0,0,0,.632.632h14.105a.629.629,0,0,0,.632-.632h0a.629.629,0,0,0-.632-.632H242.632a.741.741,0,0,0-.632.632Z" transform="translate(-239.123 -297.154)" fill="#fff"/>
      </g>
      <g id="Group_46-2" data-name="Group 46" transform="translate(16.983 122.108)">
        <path id="Path_3460" data-name="Path 3460" d="M183.3,262.7l22.035,7.439,9.474-5.614Z" transform="translate(-183.3 -262.7)" fill="#666"/>
      </g>
      <g id="Group_48" data-name="Group 48" transform="translate(22.105 85.336)">
        <path id="Path_3463" data-name="Path 3463" d="M208.495,223.283H206.46v-4h.21a2.665,2.665,0,0,0,2.667-2.667h-1.193a1.375,1.375,0,0,1-1.053,1.4l-.772-2.456h-2.175v-1.544h.211a2.666,2.666,0,0,0,2.667-2.667h-1.193a1.375,1.375,0,0,1-1.053,1.4L204,210.3h-8.07l-.772,2.456a1.5,1.5,0,0,1-1.053-1.4h-1.193a2.666,2.666,0,0,0,2.667,2.667h.211v1.544h-2.175l-.772,2.456a1.5,1.5,0,0,1-1.053-1.4H190.6a2.665,2.665,0,0,0,2.667,2.667h.21v4h-2.035V225.6h-.772v3.509h18.807V225.6h-.772v-2.316Zm-3.228,0h-2.386v-4h2.386Zm-3.509-4v4h-3.719v-4Zm1.333-7.79.421,1.4h-7.228l.421-1.4Zm-6.246,2.526h6.035v1.544h-6.035Zm8.561,2.737.421,1.4H193.9l.421-1.4Zm-10.877,2.526h2.386v4H194.53Zm-2.105,5.193H207.3v1.193H192.425Zm15.719,3.439H191.723v-1.193h16.421Zm0,0" transform="translate(-190.6 -210.3)" fill="#fff"/>
      </g>
      <path id="Path_3435-2" data-name="Path 3435" d="M328.131,175.963s-4.936,12.689.467,14.022c1.781,1.063,3.844,5.688,20.844,10.25l.031-2.844s-10.5-8.844-15.219-13.031l1.245-11.976Z" transform="translate(-208.902 -111.961)" fill="#df9968"/>
      <path id="Path_3436-2" data-name="Path 3436" d="M286.886,211.557s-2.947,41.755,5.4,62.878l41.474,30.737,1.544-5.895L303.1,268.119s-4.842-19.018-2.386-30.6l6.456-1.474s1.333,53.615,4,83.79h5.895s5.895-84.562,2.386-103.3C316.009,197.943,286.886,211.557,286.886,211.557Z" transform="translate(-197.06 -123.906)" fill="#bfbfbf"/>
      <g id="Group_49" data-name="Group 49" transform="translate(89.321 82.835)">
        <path id="Path_3466" data-name="Path 3466" d="M317.263,285.435l4.912,4.07c-.842-20.211-1.614-42.106-1.614-42.106l-4.561.842C316.07,251.891,316.632,270.418,317.263,285.435Z" transform="translate(-295.215 -218.865)" fill="#969696"/>
        <path id="Path_3467" data-name="Path 3467" d="M323.9,319.6c-.07,1.193,1.474,3.509,1.4,4.7l19.649,14.6.772-3.018Z" transform="translate(-297.57 -240.397)" fill="#969696"/>
        <path id="Path_3468" data-name="Path 3468" d="M313.9,286.782l-16.7-12.351c-8.351-21.123-5.4-62.878-5.4-62.878s8.421-3.93,16.7-4.7c-9.544-.982-21.614,4.7-21.614,4.7s-2.947,41.755,5.4,62.878l16.7,12.351c.561,11.719,1.263,23.579,2.105,33.053h4.912C315.166,310.361,314.465,298.572,313.9,286.782Z" transform="translate(-286.381 -206.737)" fill="#969696"/>
      </g>
      <path id="Path_3437-2" data-name="Path 3437" d="M321.6,367.97v4.421s11.368,6.316,19.719,7.369c0,0,1.263-5.895-13.193-9.965l-.632-1.895H321.6Z" transform="translate(-207.564 -171.967)" fill="#fc86b4"/>
      <path id="Path_3438-2" data-name="Path 3438" d="M326.723,368H321.6v4.421s3.088,1.684,7.228,3.509A18.746,18.746,0,0,1,326.723,368Z" transform="translate(-207.564 -171.997)" fill="#f473a7"/>
      <path id="Path_3439-2" data-name="Path 3439" d="M321.6,372.4v1.333s11.368,6.316,19.719,7.368a2.729,2.729,0,0,0-.14-1.4C332.9,378.646,321.6,372.4,321.6,372.4Z" transform="translate(-207.564 -173.309)" fill="#ef599d"/>
      <path id="Path_3440-2" data-name="Path 3440" d="M352.767,340.6l8.351,6.105s-2.316,11.86-5.965,13.123H346.1s-.14-3.579,6.035-5.263l2.105-8.632-2.316-1.754Z" transform="translate(-214.871 -163.825)" fill="#f473a7"/>
      <path id="Path_3441-2" data-name="Path 3441" d="M356.125,348.039a18.746,18.746,0,0,1,5.614,5.4,51.212,51.212,0,0,0,1.825-6.737l-8.351-6.105-.912,3.509,2.316,1.754Z" transform="translate(-217.316 -163.825)" fill="#fc86b4"/>
      <g id="Group_50" data-name="Group 50" transform="translate(131.148 182.178)">
        <path id="Path_3474" data-name="Path 3474" d="M360.1,348.3c-.351,1.614-2.526,11.79-5.965,12.912h-8a1.823,1.823,0,0,0-.14.912h9.123c3.719-1.193,5.965-13.123,5.965-13.123Z" transform="translate(-345.984 -348.3)" fill="#ef599d"/>
      </g>
      <path id="Path_3442" data-name="Path 3442" d="M285.67,205.585s18.527,7.368,34.737,3.509c0,0-6.526-30.527-2.246-48.492,0,0-16.07-13.965-30.527-4.983C287.7,155.62,279.214,162.918,285.67,205.585Z" transform="translate(-196.125 -107.758)" fill="#fad390"/>
      <path id="Path_3443-2" data-name="Path 3443" d="M308.98,194.834A31.108,31.108,0,0,1,292.629,182.2c-3.018-3.649-5.053-7.439-5.123-12.421a17.6,17.6,0,0,1,.7-5.4,18.839,18.839,0,0,1,5.333-10.877,20.7,20.7,0,0,0-5.825,2.456s-8.491,7.3-1.965,49.9c0,0,18.526,7.368,34.737,3.509,0,0-1.193-5.754-2.246-13.755A23.513,23.513,0,0,1,308.98,194.834Z" transform="translate(-196.137 -108.025)" fill="#fad390"/>
      <path id="Path_3444" data-name="Path 3444" d="M261.8,215.479c2.456,1.614.491,1.4,1.825,3.93.281-.211,6.176-2.386,6.316-2.737,3.789-7.93,9.123-51.79,9.123-51.79a3.489,3.489,0,0,1-.912-1.754c-1.193.07-2.386.14-3.649.14-.561,0,4.211-7.3,3.649-7.368,0,.561-6.386.561-7.439,8.561C266.432,197.3,267.554,215.69,261.8,215.479Z" transform="translate(-189.729 -108.74)" fill="#f2b07d"/>
      <g id="Group_51" data-name="Group 51" transform="translate(72.071 47.23)">
        <path id="Path_3478" data-name="Path 3478" d="M280.905,163.228c-1.193.07-2.386.14-3.649.14-.561,0,4.211-7.3,3.649-7.368,0,.421-3.439.491-5.684,3.649,1.684-1.053,3.3-1.193,3.3-1.474.561.07-4.211,7.368-3.649,7.368,1.263,0,2.456-.07,3.649-.14a3.869,3.869,0,0,0,.912,1.754s-4.842,39.93-8.632,50.457a7.82,7.82,0,0,0,1.825-.912c3.789-7.93,9.123-51.79,9.123-51.79A3.6,3.6,0,0,1,280.905,163.228Z" transform="translate(-264.484 -156)" fill="#de9361"/>
        <path id="Path_3479" data-name="Path 3479" d="M262.221,240.7c-.14,0-.281.07-.421,0,.14.07.211.14.351.211A.307.307,0,0,0,262.221,240.7Z" transform="translate(-261.8 -181.261)" fill="#de9361"/>
      </g>
      <path id="Path_3445" data-name="Path 3445" d="M289.858,146.457s-8.421-2.667-13.193,3.509c-2.105,3.018-4.842,4.842-5.965,16.491,0,0,3.439,3.719,10.737,3.649l2.737-6.175,25.684.351,1.895,8.211,8.281-3.439S323.4,156,312.385,152.492C307.542,150.948,289.858,146.457,289.858,146.457Z" transform="translate(-192.384 -105.753)" fill="#fad390"/>
      <path id="Path_3446-2" data-name="Path 3446" d="M283.753,163.062a49.326,49.326,0,0,1,3.369-17.193c-2.877-.281-7.369.07-10.456,4-2.105,3.018-4.842,4.842-5.965,16.491,0,0,3.439,3.719,10.737,3.649l2.316-5.263Z" transform="translate(-192.384 -105.726)" fill="#fad390"/>
      <path id="Path_3447" data-name="Path 3447" d="M260.085,240.353s-6.526.491-6.386,4.561c0,0,.7,5.474,1.4,4.561,0,0,1.123-.351.632-4.561,0,0-.14,5.474,2.105,5.474.772,0,.491-5.474.491-5.474s.421,5.474,2.526,5.474c.982,0,.281-5.4.281-5.4s5.965.07,6.386-3.3C268.015,238.388,260.085,240.353,260.085,240.353Z" transform="translate(-187.313 -133.754)" fill="#f2b07d"/>
      <path id="Path_3448" data-name="Path 3448" d="M266.612,240.3c-2.246,2.526-7.228,3.018-10.105,3.018a12.616,12.616,0,0,1-2.176-.211,3.41,3.41,0,0,0-.632,2.105s.7,5.474,1.4,4.561c0,0,.7-.211.7-2.456.211,1.544.7,3.3,1.965,3.368.772,0,.491-5.474.491-5.474s.421,5.474,2.526,5.474c.982,0,.281-5.4.281-5.4s5.965.07,6.386-3.3A1.331,1.331,0,0,0,266.612,240.3Z" transform="translate(-187.313 -133.912)" fill="#de9361"/>
      <path id="Path_3450" data-name="Path 3450" d="M298.581,146.8s-1.123,8.912,7.86,9.544c8.983.7,6.947-5.754,6.947-5.754Z" transform="translate(-200.685 -106.026)" fill="#f2b07d"/>
      <path id="Path_3451" data-name="Path 3451" d="M297.1,107.057c-3.018,9.965,1.4,20.421,9.965,22.6,9.825,2.526,17.825-3.439,20.772-13.4,3.018-9.965-1.474-20.07-9.965-22.6S300.115,97.092,297.1,107.057Z" transform="translate(-199.974 -90.003)" fill="#f2b07d"/>
      <path id="Path_3452" data-name="Path 3452" d="M300.675,117.864a29.487,29.487,0,0,1,1.263-5.474,21.948,21.948,0,0,1,2.6-4.912,15.236,15.236,0,0,1,5.895-4.842c1.263-.351,2.6-.772,3.86-1.123a15.048,15.048,0,0,1,11.158,2.667,16.819,16.819,0,0,1,3.158,3.158c-.912-6.456-4.842-11.86-10.737-13.684-8.491-2.526-17.825,3.439-20.772,13.4-2.526,8.281.14,16.983,6.105,20.912A14.553,14.553,0,0,1,300.675,117.864Z" transform="translate(-199.972 -90.003)" fill="#de9361"/>
      <path id="Path_3453-2" data-name="Path 3453" d="M305.1,142.6l-1.4,7.018,6.807,2.316,1.4-6.737A11.177,11.177,0,0,1,305.1,142.6Z" transform="translate(-202.225 -104.774)" fill="#de9361"/>
      <path id="Path_3454-2" data-name="Path 3454" d="M308.583,148.242a10.739,10.739,0,0,1-4.211-.842l-.772,3.649,6.807,2.316,1.123-5.263A19.764,19.764,0,0,1,308.583,148.242Z" transform="translate(-202.196 -106.205)" fill="#f2b07d"/>
      <path id="Path_3455-2" data-name="Path 3455" d="M296.2,124.5a35.084,35.084,0,0,0,2.456,6.035c.281.491.491.912.772,1.4.281.421.561.912.842,1.333a3.858,3.858,0,0,0,.491.632,4.009,4.009,0,0,0,.491.561c.351.421.7.772,1.053,1.123l.561.491.561.491a12.213,12.213,0,0,0,1.263.772c.211.14.421.21.632.351a7.27,7.27,0,0,0,.7.281l.7.281.7.21a2.492,2.492,0,0,0,.7.14c.281.07.491.07.772.14a10.868,10.868,0,0,0,1.544.07c.491,0,.983-.07,1.544-.07.491-.07,1.053-.14,1.544-.211h-.07l1.544-.491.772-.211c.281-.07.491-.211.772-.281l1.474-.561a13.088,13.088,0,0,1,1.4-.7c.281-.14.421-.281.7-.421l.632-.421c.211-.14.421-.351.632-.491s.421-.351.632-.491a4.237,4.237,0,0,1,.561-.561c.211-.21.351-.421.561-.632l1.123-1.263a14.848,14.848,0,0,1-.772,1.474c-.14.281-.281.491-.421.772a4.256,4.256,0,0,1-.491.7c-.14.211-.351.421-.561.7a5.1,5.1,0,0,1-.561.632l-.632.561a2.748,2.748,0,0,1-.7.561,17.028,17.028,0,0,1-1.4.982l-1.544.772a3.761,3.761,0,0,1-.772.351l-.772.351-1.614.632h-.07c-.561.07-1.123.211-1.684.281a13.665,13.665,0,0,1-1.755.14H309.6l-.912-.07a4.83,4.83,0,0,1-.912-.14,3.7,3.7,0,0,1-.842-.211l-.842-.211-.842-.281c-.281-.07-.561-.281-.842-.351a7.647,7.647,0,0,1-.772-.421c-.491-.281-.982-.632-1.474-.982l-.7-.561-.632-.632a10.267,10.267,0,0,1-1.123-1.333,4.266,4.266,0,0,1-.491-.7c-.14-.211-.281-.491-.421-.7a10.581,10.581,0,0,1-.772-1.544c-.211-.491-.421-1.053-.632-1.544a14.136,14.136,0,0,1-.491-1.614,13.277,13.277,0,0,1-.351-1.614,15.641,15.641,0,0,1-.281-1.614C296.27,125.623,296.2,125.061,296.2,124.5Z" transform="translate(-199.989 -99.376)" fill="#a7714c"/>
      <path id="Path_3456-2" data-name="Path 3456" d="M304.23,136.962a4.259,4.259,0,0,1-.7-.491l-.561-.491-.561-.491c-.351-.351-.7-.7-1.053-1.123-.14-.21-.351-.351-.491-.561s-.351-.421-.491-.632a8.581,8.581,0,0,1-.842-1.333,8.985,8.985,0,0,1-.772-1.4A35.07,35.07,0,0,1,296.3,124.4a13.631,13.631,0,0,0,.14,1.684,11.049,11.049,0,0,0,.281,1.614c.14.561.211,1.123.351,1.614.14.561.351,1.053.491,1.614.211.561.421,1.053.632,1.544.281.491.491,1.053.772,1.544a6.17,6.17,0,0,0,.421.7,4.254,4.254,0,0,0,.491.7A10.265,10.265,0,0,0,301,136.751l.632.632.7.561a10.762,10.762,0,0,0,1.474.982c.281.14.491.281.772.421l.421.211A9.376,9.376,0,0,1,304.23,136.962Z" transform="translate(-200.018 -99.346)" fill="#714329"/>
      <path id="Path_3457-2" data-name="Path 3457" d="M330.2,107.507c.14-8.421-4.842-15.93-12.842-18.176-9.895-2.737-20.772,3.649-24.351,14.386,0,0-2.105,6.667,0,12.772a50.142,50.142,0,0,0,6.456-10.877h0s2.888-5.652,7.782-5.178,9.413,1.388,13.118,4.373,1.626,8.244,1.626,8.244h0c-.772,2.667-1.4,6.737,1.053,9.965C323.038,123.016,331.108,116.489,330.2,107.507Z" transform="translate(-198.756 -88.698)" fill="#ff5213"/>
      <g id="Group_55" data-name="Group 55" transform="translate(101.474 19.608)">
        <path id="Path_3496" data-name="Path 3496" d="M303.7,119.278a2.828,2.828,0,0,1,1.193-2.035,3.392,3.392,0,0,1,2.456-.561,2.559,2.559,0,0,1,2.105,1.544,2.817,2.817,0,0,1-.14,2.386,4.92,4.92,0,0,0-.772-1.825,1.929,1.929,0,0,0-1.333-.7,3.456,3.456,0,0,0-1.684.14A4.779,4.779,0,0,0,303.7,119.278Z" transform="translate(-303.7 -116.639)"/>
      </g>
      <g id="Group_56" data-name="Group 56" transform="translate(113.685 22.697)">
        <path id="Path_3497" data-name="Path 3497" d="M321.1,123.4a2.83,2.83,0,0,1,1.333-1.895,3.169,3.169,0,0,1,2.526-.351,2.745,2.745,0,0,1,1.965,1.754,2.654,2.654,0,0,1-.351,2.316,4.634,4.634,0,0,0-.632-1.895,1.956,1.956,0,0,0-1.263-.842,2.761,2.761,0,0,0-1.684,0A5.864,5.864,0,0,0,321.1,123.4Z" transform="translate(-321.1 -121.041)"/>
      </g>
      <path id="Path_3458-2" data-name="Path 3458" d="M303.7,113.6s1.754-4.421,7.79-1.684l-1.193,1.544A9.68,9.68,0,0,0,303.7,113.6Z" transform="translate(-202.225 -95.357)"/>
      <path id="Path_3459-2" data-name="Path 3459" d="M329.376,119.783s.421-4.7-6.176-4.982l.421,1.895C323.551,116.625,326.5,116.835,329.376,119.783Z" transform="translate(-208.041 -96.483)"/>
      <path id="Path_3460-2" data-name="Path 3460" d="M318.128,123.919s-.21,2.526,1.614,2.526,1.123,2.807-1.123,2.737-2.877-3.719-2.386-4.912C316.8,123.147,318.339,122.3,318.128,123.919Z" transform="translate(-205.917 -98.935)" fill="#de9361"/>
      <path id="Path_3461" data-name="Path 3461" d="M304.9,129.3s8,4.842,13.895,3.719a7.423,7.423,0,0,1-6.947,2.105A8.592,8.592,0,0,1,304.9,129.3Z" transform="translate(-202.583 -100.807)" fill="#fff"/>
      <g id="Group_58" data-name="Group 58" transform="translate(105.334 34.458)">
        <path id="Path_3503" data-name="Path 3503" d="M309.2,137.8a30.469,30.469,0,0,0,3.368.982,14.051,14.051,0,0,0,1.684.281,6.833,6.833,0,0,0,1.684-.14,2.816,2.816,0,0,1-1.684.7,5.222,5.222,0,0,1-1.825-.14,6.938,6.938,0,0,1-1.684-.632A7.517,7.517,0,0,1,309.2,137.8Z" transform="translate(-309.2 -137.8)" fill="#de9361"/>
      </g>
      <path id="Path_3462" data-name="Path 3462" d="M355.874,171.876s-.4,2.22.438,2.781c1.895,1.193,6.007-.461,5.8-2.216C361.967,170.687,355.874,171.876,355.874,171.876Z" transform="translate(-216.615 -86.352)" fill="#e49965"/>
      <path id="Path_3463-2" data-name="Path 3463" d="M365.4,166.873c-.14,0-.772-.07-1.333-.07h-.14c-2.526-.281-4.561-.491-5.895.561A9.613,9.613,0,0,0,356,169.54c4.14-.561,2.526,2.947,2.526,2.947-.842,3.158,1.965.982,1.965.982a1.37,1.37,0,0,0,2.316-.211c.491.842,1.193.7,1.684,0,.211.07,0-.07,0,0C366.176,175.856,369.544,167.645,365.4,166.873Z" transform="translate(-216.823 -83.924)" fill="#f2b07d"/>
      <g id="Group_29" data-name="Group 29" transform="translate(0 191.722)" opacity="0.3">
        <ellipse id="Ellipse_14" data-name="Ellipse 14" cx="101.334" cy="6.035" rx="101.334" ry="6.035" transform="translate(0 0)" opacity="0.1"/>
      </g>
      <g id="Group_47" data-name="Group 47" transform="translate(2.947 119.862)">
        <path id="Path_3461-2" data-name="Path 3461" d="M223.792,261.746a2.3,2.3,0,0,1-2.386,2.246h-55.72a2.3,2.3,0,0,1-2.386-2.246h0a2.3,2.3,0,0,1,2.386-2.246h55.72a2.3,2.3,0,0,1,2.386,2.246Z" transform="translate(-163.3 -259.5)" fill="#898989"/>
      </g>
      <rect id="Rectangle_6" data-name="Rectangle 6" width="56.281" height="40.141" transform="translate(5.263 79.721)" fill="#fad390"/>
      <path id="Path_3434-2" data-name="Path 3434" d="M217.548,237.248V202.3h5.4v40.141H166.6v-5.193Z" transform="translate(-161.337 -122.579)" fill="#f3ca82"/>
    </g>
  </g>
</svg>
