<svg xmlns="http://www.w3.org/2000/svg" width="24.063" height="22.747" viewBox="0 0 24.063 22.747">
  <g id="food-delivery" transform="translate(0 -14)">
    <path id="Path_3578" data-name="Path 3578" d="M22.786,20.767H18.705a1.279,1.279,0,0,0-1.277,1.278v4.7H15.9a3.506,3.506,0,0,0,.1-1.1h0a10.244,10.244,0,0,0-.965-4.481,4.808,4.808,0,0,0-1.494-1.8,3.269,3.269,0,0,0,.874-2.315,2.991,2.991,0,1,0-5.981,0,.352.352,0,0,0,.352.352h.24a2.482,2.482,0,0,0-.034.406,2.447,2.447,0,0,0,1.966,2.4,5.941,5.941,0,0,0-.175,1.533L9.9,22.5l-2.139.173L5.3,21.853a.747.747,0,0,0-.7,0,.626.626,0,0,0-.219.526v1.835a.352.352,0,0,0,.352.352h.42L4.5,26.79a.353.353,0,0,0,.677.2l.7-2.42h1a11.371,11.371,0,0,0,.558,8.905H6.8L4.166,30.521l.558-1.928a.352.352,0,0,0-.677-.2l-.534,1.844a3.546,3.546,0,0,0-3.5,2.748.352.352,0,0,0,.264.422l.5.115a2.7,2.7,0,0,0,5.212,1.2l.395.091a.46.46,0,0,0,.341-.019.4.4,0,0,0,.2-.27,3.507,3.507,0,0,0,.057-.351h7.372a3,3,0,0,0,5.945,0h.335a.483.483,0,0,0,.366-.133.452.452,0,0,0,.125-.343,4,4,0,0,0-.144-.955,5.5,5.5,0,0,0-.39-3.555.928.928,0,0,0,.421-.777v-.969h1.78a1.279,1.279,0,0,0,1.277-1.278V22.044a1.279,1.279,0,0,0-1.277-1.278ZM4.516,35.474a1.977,1.977,0,0,1-1.5.253h0a2,2,0,0,1-1.544-2.04l3.823.88a1.982,1.982,0,0,1-.776.907Zm1.764-1.4L.8,32.808A2.839,2.839,0,0,1,3.6,30.949l2.686,3Q6.285,34.011,6.279,34.07ZM11.6,27.928a3.138,3.138,0,0,0-.1,1.063v1.33H10.211V28.5c0-2.063,1.126-2.431,1.631-2.491H15.3a1.494,1.494,0,0,1-.32,1.012,1.637,1.637,0,0,1-1.223.367H12.489a.849.849,0,0,0-.886.543Zm-.1,3.1v.842H8.988a1,1,0,0,1,.243-.6.87.87,0,0,1,.627-.239ZM15.282,25.3H12.076a13.162,13.162,0,0,1-.338-1.3l.975-.633a1.455,1.455,0,0,0,.759-1.339A1.246,1.246,0,0,0,12.7,21a1.272,1.272,0,0,0-1.183.13,4.162,4.162,0,0,1,.17-.894,2.484,2.484,0,0,0,.446-.088,2.92,2.92,0,0,0,.823-.326C13.631,20.231,15.124,21.547,15.282,25.3ZM9.164,16.7a2.282,2.282,0,0,1,4.545.352,2.394,2.394,0,0,1-1.317,2.272V17.467a.7.7,0,0,0-.708-.768H9.164ZM9.7,17.808a1.755,1.755,0,0,1,.047-.406h1.891l.049.007a.419.419,0,0,1,0,.058v2.062a1.744,1.744,0,0,1-.253.019h0A1.74,1.74,0,0,1,9.7,17.808Zm-.457,5.448.835-.068a.353.353,0,0,0,.2-.084l1.507-1.3h0a.7.7,0,0,1,.453-.19.543.543,0,0,1,.536.473.778.778,0,0,1-.442.68l-1.679,1.09H9.239v-.6Zm-1.49.121.785-.063v.548H7.623c-.118,0-.147-.1-.15-.181A.28.28,0,0,1,7.75,23.377Zm-.834-.243a1.018,1.018,0,0,0-.13.725s0,0,0,0H5.077V22.523l1.839.608v0Zm.709,1.432h3.13a.352.352,0,0,0,.192-.057l.16-.1c.077.339.164.669.259.981-.719.212-1.86.9-1.86,3.109v1.86a1.471,1.471,0,0,0-.785.421,1.719,1.719,0,0,0-.441,1.09H7.569a10.366,10.366,0,0,1,.055-7.3Zm.581,8.9c-.13-.3-.256-.6-.374-.9h3.66c.474,0,.715-.216.715-.642V29.343h2.782a.352.352,0,0,0,0-.7h-2.78a1.6,1.6,0,0,1,.054-.461c.018-.047.033-.088.227-.088h1.266a2.274,2.274,0,0,0,1.734-.586c.017-.018.034-.037.05-.056H20.3v.969a.226.226,0,0,1-.223.224H16.569a.352.352,0,1,0,0,.7h3.3a4.162,4.162,0,0,1,.514,2.177,3.825,3.825,0,0,0-5.826-.455,3.883,3.883,0,0,0-1.108,2.406Zm9.116,2.572a2.323,2.323,0,0,1-2.256-1.866h4.512a2.323,2.323,0,0,1-2.256,1.866Zm2.657-2.571H14.158a3.162,3.162,0,0,1,3.119-2.838,3.128,3.128,0,0,1,3,2.241l0,.012a3.253,3.253,0,0,1,.116.584Zm3.38-7.3a.573.573,0,0,1-.572.573H18.133v-1.82h5.225Zm0-1.952H18.133v-.75h5.225Zm0-1.455H18.133v-.717a.573.573,0,0,1,.572-.573h4.081a.573.573,0,0,1,.572.573Z" fill="#fff"/>
  </g>
</svg>
