<svg xmlns="http://www.w3.org/2000/svg" width="21.048" height="21.05" viewBox="0 0 21.048 21.05">
  <path id="home-run" d="M20.982,9.155l0,0L12.394.567a1.938,1.938,0,0,0-2.741,0L1.071,9.149l-.009.009a1.937,1.937,0,0,0,1.289,3.3l.06,0h.342v6.319a2.271,2.271,0,0,0,2.268,2.268H8.382A.617.617,0,0,0,9,20.433V15.478a1.036,1.036,0,0,1,1.035-1.035h1.981a1.036,1.036,0,0,1,1.035,1.035v4.954a.617.617,0,0,0,.617.617h3.359a2.271,2.271,0,0,0,2.268-2.268V12.462h.317a1.938,1.938,0,0,0,1.372-3.307Zm-.873,1.867a.7.7,0,0,1-.5.207h-.934a.617.617,0,0,0-.617.617v6.936a1.036,1.036,0,0,1-1.035,1.035H14.283V15.479a2.271,2.271,0,0,0-2.268-2.268H10.033a2.271,2.271,0,0,0-2.268,2.268v4.337H5.022a1.036,1.036,0,0,1-1.035-1.035V11.846a.617.617,0,0,0-.617-.617H2.424a.7.7,0,0,1-.485-1.2h0l8.586-8.586a.7.7,0,0,1,1,0l8.585,8.584,0,0a.706.706,0,0,1,0,1Zm0,0" transform="translate(-0.5 0.001)" fill="#fff"/>
</svg>
