<svg xmlns="http://www.w3.org/2000/svg" width="25.25" height="18.096" viewBox="0 0 25.25 18.096">
  <g id="truck" transform="translate(0 -72.533)">
    <g id="Group_647" data-name="Group 647" transform="translate(3.367 85.579)">
      <g id="Group_646" data-name="Group 646">
        <path id="Path_3573" data-name="Path 3573" d="M70.792,337.067a2.525,2.525,0,1,0,2.525,2.525A2.528,2.528,0,0,0,70.792,337.067Zm0,4.208a1.683,1.683,0,1,1,1.683-1.683A1.685,1.685,0,0,1,70.792,341.275Z" transform="translate(-68.267 -337.067)" fill="#fff"/>
      </g>
    </g>
    <g id="Group_649" data-name="Group 649" transform="translate(17.675 85.579)">
      <g id="Group_648" data-name="Group 648">
        <path id="Path_3574" data-name="Path 3574" d="M360.925,337.067a2.525,2.525,0,1,0,2.525,2.525A2.528,2.528,0,0,0,360.925,337.067Zm0,4.208a1.683,1.683,0,1,1,1.683-1.683A1.685,1.685,0,0,1,360.925,341.275Z" transform="translate(-358.4 -337.067)" fill="#fff"/>
      </g>
    </g>
    <g id="Group_651" data-name="Group 651" transform="translate(15.992 77.162)">
      <g id="Group_650" data-name="Group 650">
        <path id="Path_3575" data-name="Path 3575" d="M333.458,172.485l-3.788-5.892a.421.421,0,0,0-.354-.193h-4.629a.421.421,0,0,0-.421.421v10.521a.42.42,0,0,0,.421.421h1.683v-.842h-1.262v-9.679h3.979l3.6,5.595v4.085h-2.1v.842H333.1a.42.42,0,0,0,.421-.421v-4.629A.42.42,0,0,0,333.458,172.485Z" transform="translate(-324.267 -166.4)" fill="#fff"/>
      </g>
    </g>
    <g id="Group_653" data-name="Group 653" transform="translate(17.675 78.846)">
      <g id="Group_652" data-name="Group 652" transform="translate(0 0)">
        <path id="Path_3576" data-name="Path 3576" d="M359.243,204.32v-2.946h3.367v-.842h-3.788a.421.421,0,0,0-.421.421v3.788a.42.42,0,0,0,.421.421h6.313v-.842h-5.892Z" transform="translate(-358.401 -200.533)" fill="#fff"/>
      </g>
    </g>
    <g id="Group_655" data-name="Group 655" transform="translate(0 74.216)">
      <g id="Group_654" data-name="Group 654">
        <path id="Path_3577" data-name="Path 3577" d="M16.413,106.667H.421a.421.421,0,0,0-.421.421v13.467a.421.421,0,0,0,.421.421H3.788v-.842H.842V107.509h15.15v12.625H8v.842h8.417a.42.42,0,0,0,.421-.421V107.088A.421.421,0,0,0,16.413,106.667Z" transform="translate(0 -106.667)" fill="#fff"/>
      </g>
    </g>
    <g id="Group_657" data-name="Group 657" transform="translate(0.421 86)">
      <g id="Group_656" data-name="Group 656" transform="translate(0 0)">
        <rect id="Rectangle_107" data-name="Rectangle 107" width="2.525" height="0.842" fill="#fff"/>
      </g>
    </g>
    <g id="Group_659" data-name="Group 659" transform="translate(8.838 86)">
      <g id="Group_658" data-name="Group 658" transform="translate(0 0)">
        <rect id="Rectangle_108" data-name="Rectangle 108" width="7.154" height="0.842" fill="#fff"/>
      </g>
    </g>
    <g id="Group_661" data-name="Group 661" transform="translate(23.146 86)">
      <g id="Group_660" data-name="Group 660" transform="translate(0 0)">
        <rect id="Rectangle_109" data-name="Rectangle 109" width="1.683" height="0.842" fill="#fff"/>
      </g>
    </g>
    <g id="Group_663" data-name="Group 663" transform="translate(1.683 75.9)">
      <g id="Group_662" data-name="Group 662" transform="translate(0 0)">
        <rect id="Rectangle_110" data-name="Rectangle 110" width="14.729" height="0.842" fill="#fff"/>
      </g>
    </g>
    <g id="Group_665" data-name="Group 665" transform="translate(5.471 87.683)">
      <g id="Group_664" data-name="Group 664">
        <rect id="Rectangle_111" data-name="Rectangle 111" width="0.842" height="0.842" fill="#fff"/>
      </g>
    </g>
    <g id="Group_667" data-name="Group 667" transform="translate(19.779 87.683)">
      <g id="Group_666" data-name="Group 666">
        <rect id="Rectangle_112" data-name="Rectangle 112" width="0.842" height="0.842" fill="#fff"/>
      </g>
    </g>
    <g id="Group_669" data-name="Group 669" transform="translate(1.683 72.533)">
      <g id="Group_668" data-name="Group 668" transform="translate(0 0)">
        <rect id="Rectangle_113" data-name="Rectangle 113" width="5.892" height="0.842" fill="#fff"/>
      </g>
    </g>
    <g id="Group_671" data-name="Group 671" transform="translate(0 72.533)">
      <g id="Group_670" data-name="Group 670" transform="translate(0 0)">
        <rect id="Rectangle_114" data-name="Rectangle 114" width="0.842" height="0.842" fill="#fff"/>
      </g>
    </g>
  </g>
</svg>
